<svg width="54" height="53" viewBox="0 0 54 53" fill="none" xmlns="http://www.w3.org/2000/svg">
<path d="M52.6016 26.5C52.6016 40.8585 40.9391 52.5 26.5508 52.5C12.1624 52.5 0.5 40.8585 0.5 26.5C0.5 12.1415 12.1624 0.5 26.5508 0.5C40.9391 0.5 52.6016 12.1415 52.6016 26.5Z" fill="#394561" stroke="white"/>
<path fill-rule="evenodd" clip-rule="evenodd" d="M9.71211 0.00668769C9.39362 -0.0285824 9.06256 0.0756549 8.81835 0.3194L0.320012 8.80149C-0.106671 9.22735 -0.106671 9.91782 0.320012 10.3437C0.746694 10.7695 1.43848 10.7695 1.86516 10.3437L9.71211 2.51175L17.5591 10.3437C17.9857 10.7695 18.6775 10.7695 19.1042 10.3437C19.5309 9.91782 19.5309 9.22735 19.1042 8.80149L10.6059 0.3194C10.3617 0.0756549 10.0306 -0.0285824 9.71211 0.00668769V0.00668769Z" transform="translate(16.4365 20.8848)" fill="white"/>
</svg>
